<svg xmlns="http://www.w3.org/2000/svg" xmlns:xlink="http://www.w3.org/1999/xlink" width="1088pt" height="143pt" viewBox="0 0 1087.61 143.4"><g id="graph0" class="graph" transform="scale(1 1) rotate(0) translate(4 139.397)"><title>%3</title><polygon fill="#fff" stroke="transparent" points="-4 4 -4 -139.397 1083.609 -139.397 1083.609 4 -4 4"/><g id="node1" class="node"><title>sources</title><ellipse cx="78.489" cy="-59.397" fill="#add8e6" stroke="#000" rx="78.478" ry="59.294"/><text x="58.989" y="-64.397" fill="#000" font-family="Times,serif" font-size="20" font-weight="bold" text-anchor="start">Rust</text><text x="45.489" y="-44.397" fill="#000" font-family="Times,serif" font-size="20" font-weight="bold" text-anchor="start">Sources</text></g><g id="node2" class="node"><title>initial_wasm</title><ellipse cx="471.621" cy="-59.397" fill="#add8e6" stroke="#000" rx="133.786" ry="46.839"/><text x="399.621" y="-55.397" fill="#000" font-family="monospace" font-size="20" font-weight="bold" text-anchor="start">initial.wasm</text></g><g id="edge1" class="edge"><title>sources-&gt;initial_wasm</title><path fill="none" stroke="#000" d="M157.1001,-59.397C205.8238,-59.397 269.891,-59.397 327.481,-59.397"/><polygon fill="#000" stroke="#000" points="327.78 -62.897 337.78 -59.397 327.779 -55.897 327.78 -62.897"/><text x="217.478" y="-116.397" fill="#000" font-family="monospace" font-size="20" font-weight="bold" text-anchor="start">cargo</text><text x="179.478" y="-88.397" fill="#000" font-family="Times,serif" font-size="20" text-anchor="start">Using</text><text x="231.478" y="-88.397" fill="#000" font-family="monospace" font-size="20" text-anchor="start">rustc</text><text x="202.478" y="-68.397" fill="#000" font-family="Times,serif" font-size="20" text-anchor="start">and LLVM</text></g><g id="node3" class="node"><title>final_wasm</title><ellipse cx="962.937" cy="-59.397" fill="#add8e6" stroke="#000" rx="116.846" ry="46.839"/><text x="902.937" y="-55.397" fill="#000" font-family="monospace" font-size="20" font-weight="bold" text-anchor="start">final.wasm</text></g><g id="edge2" class="edge"><title>initial_wasm-&gt;final_wasm</title><path fill="none" stroke="#000" d="M605.5505,-59.397C677.3178,-59.397 765.251,-59.397 835.935,-59.397"/><polygon fill="#000" stroke="#000" points="836.235 -62.897 846.235 -59.397 836.235 -55.897 836.235 -62.897"/><text x="653.764" y="-116.397" fill="#000" font-family="monospace" font-size="20" font-weight="bold" text-anchor="start">wasm-bindgen</text><text x="627.764" y="-88.397" fill="#000" font-family="Times,serif" font-size="20" text-anchor="start">Using</text><text x="679.764" y="-88.397" fill="#000" font-family="monospace" font-size="20" text-anchor="start">wasmparser</text><text x="660.764" y="-68.397" fill="#000" font-family="Times,serif" font-size="20" text-anchor="start">and</text><text x="694.764" y="-68.397" fill="#000" font-family="monospace" font-size="20" text-anchor="start">walrus</text></g></g></svg>