<svg xmlns="http://www.w3.org/2000/svg" xmlns:xlink="http://www.w3.org/1999/xlink" width="887pt" height="169pt" viewBox="0 0 887.32 169.4"><g id="graph0" class="graph" transform="scale(1 1) rotate(0) translate(4 165.397)"><title>%3</title><polygon fill="#fff" stroke="transparent" points="-4 4 -4 -165.397 883.318 -165.397 883.318 4 -4 4"/><g id="node1" class="node"><title>wasm</title><ellipse cx="88.388" cy="-59.397" fill="#add8e6" stroke="#000" rx="88.277" ry="59.294"/><text x="48.388" y="-64.397" fill="#000" font-family="Times,serif" font-size="20" font-weight="bold" text-anchor="start">A</text><text x="68.388" y="-64.397" fill="#000" font-family="monospace" font-size="20" font-weight="bold" text-anchor="start">.wasm</text><text x="59.388" y="-44.397" fill="#000" font-family="Times,serif" font-size="20" font-weight="bold" text-anchor="start">Binary</text></g><g id="node2" class="node"><title>clif</title><ellipse cx="500.044" cy="-59.397" fill="#add8e6" stroke="#000" rx="86.035" ry="59.294"/><text x="461.044" y="-64.397" fill="#000" font-family="Times,serif" font-size="20" font-weight="bold" text-anchor="start">Cranelift</text><text x="489.044" y="-44.397" fill="#000" font-family="Times,serif" font-size="20" font-weight="bold" text-anchor="start">IR</text></g><g id="edge1" class="edge"><title>wasm-&gt;clif</title><path fill="none" stroke="#000" d="M176.9516,-59.397C243.5942,-59.397 334.8488,-59.397 403.3817,-59.397"/><polygon fill="#000" stroke="#000" points="403.75 -62.897 413.75 -59.397 403.75 -55.897 403.75 -62.897"/><text x="249.777" y="-116.397" fill="#000" font-family="Times,serif" font-size="20" font-weight="bold" text-anchor="start">Wasmtime</text><text x="272.277" y="-88.397" fill="#000" font-family="Times,serif" font-size="20" text-anchor="start">Using</text><text x="199.277" y="-68.397" fill="#000" font-family="monospace" font-size="20" text-anchor="start">cranelift-wasm</text></g><g id="node3" class="node"><title>machine_code</title><ellipse cx="809.314" cy="-59.397" fill="#add8e6" stroke="#000" rx="70.007" ry="59.294"/><text x="782.314" y="-64.397" fill="#000" font-family="Times,serif" font-size="20" font-weight="bold" text-anchor="start">Native</text><text x="787.314" y="-44.397" fill="#000" font-family="Times,serif" font-size="20" font-weight="bold" text-anchor="start">Code</text></g><g id="edge2" class="edge"><title>clif-&gt;machine_code</title><path fill="none" stroke="#000" d="M586.6041,-59.397C631.2828,-59.397 685.4344,-59.397 729.1527,-59.397"/><polygon fill="#000" stroke="#000" points="729.17 -62.897 739.17 -59.397 729.17 -55.897 729.17 -62.897"/><text x="624.311" y="-142.397" fill="#000" font-family="Times,serif" font-size="20" font-weight="bold" text-anchor="start">Cranelift</text><text x="608.811" y="-113.397" fill="#000" font-family="Times,serif" font-size="20" text-anchor="start">Optimization,</text><text x="614.811" y="-91.397" fill="#000" font-family="Times,serif" font-size="20" text-anchor="start">legalization,</text><text x="643.311" y="-69.397" fill="#000" font-family="Times,serif" font-size="20" text-anchor="start">etc...</text></g></g></svg>